<svg width="35" height="40" viewBox="0 0 35 40" fill="none" xmlns="http://www.w3.org/2000/svg">
<g clip-path="url(#clip0)">
<g opacity="0.28">
<path d="M15.4008 31.7206C15.4008 30.9588 14.774 30.3413 14.0008 30.3413C13.2276 30.3413 12.6008 30.9588 12.6008 31.7206V38.6206C12.6008 39.3824 13.2276 39.9999 14.0008 39.9999C14.774 39.9999 15.4008 39.3824 15.4008 38.6206V31.7206Z" fill="#FF7304"/>
<path d="M15.4008 31.7206C15.4008 30.9588 14.774 30.3413 14.0008 30.3413C13.2276 30.3413 12.6008 30.9588 12.6008 31.7206V38.6206C12.6008 39.3824 13.2276 39.9999 14.0008 39.9999C14.774 39.9999 15.4008 39.3824 15.4008 38.6206V31.7206Z" fill="url(#paint0_linear)" fill-opacity="0.19"/>
</g>
<path d="M15.3996 37.2411C15.3996 36.4794 14.7728 35.8618 13.9996 35.8618C13.2264 35.8618 12.5996 36.4794 12.5996 37.2411V38.6204C12.5996 39.3822 13.2264 39.9997 13.9996 39.9997C14.7728 39.9997 15.3996 39.3822 15.3996 38.6204V37.2411Z" fill="#FF7304"/>
<path d="M15.3996 37.2411C15.3996 36.4794 14.7728 35.8618 13.9996 35.8618C13.2264 35.8618 12.5996 36.4794 12.5996 37.2411V38.6204C12.5996 39.3822 13.2264 39.9997 13.9996 39.9997C14.7728 39.9997 15.3996 39.3822 15.3996 38.6204V37.2411Z" fill="url(#paint1_linear)" fill-opacity="0.19"/>
<path d="M22.3996 31.7206C22.3996 30.9588 21.7728 30.3413 20.9996 30.3413C20.2264 30.3413 19.5996 30.9588 19.5996 31.7206V38.6206C19.5996 39.3824 20.2264 39.9999 20.9996 39.9999C21.7728 39.9999 22.3996 39.3824 22.3996 38.6206V31.7206Z" fill="#FF7304"/>
<path d="M22.3996 31.7206C22.3996 30.9588 21.7728 30.3413 20.9996 30.3413C20.2264 30.3413 19.5996 30.9588 19.5996 31.7206V38.6206C19.5996 39.3824 20.2264 39.9999 20.9996 39.9999C21.7728 39.9999 22.3996 39.3824 22.3996 38.6206V31.7206Z" fill="url(#paint2_linear)" fill-opacity="0.19"/>
<path d="M15.6772 1.03352L0.256235 27.5852C0.0694294 27.9033 -0.0159139 28.2694 0.0113033 28.6359C0.0385205 29.0024 0.177039 29.3523 0.408845 29.6402C0.64065 29.9281 0.955017 30.1406 1.31106 30.2501C1.66711 30.3596 2.04836 30.3611 2.40523 30.2542L16.5802 24.9163C17.1793 24.73 17.8221 24.73 18.4212 24.9163L32.5962 30.2542C32.9531 30.3611 33.3344 30.3596 33.6904 30.2501C34.0465 30.1406 34.3608 29.9281 34.5926 29.6402C34.8244 29.3523 34.9629 29.0024 34.9902 28.6359C35.0174 28.2694 34.932 27.9033 34.7452 27.5852L19.3242 1.03352C19.1406 0.716748 18.8752 0.453448 18.5549 0.270313C18.2347 0.0871792 17.871 -0.00927734 17.5007 -0.00927734C17.1305 -0.00927734 16.7668 0.0871792 16.4465 0.270313C16.1263 0.453448 15.8609 0.716748 15.6772 1.03352Z" fill="#FF7304"/>
<path d="M15.6772 1.03352L0.256235 27.5852C0.0694294 27.9033 -0.0159139 28.2694 0.0113033 28.6359C0.0385205 29.0024 0.177039 29.3523 0.408845 29.6402C0.64065 29.9281 0.955017 30.1406 1.31106 30.2501C1.66711 30.3596 2.04836 30.3611 2.40523 30.2542L16.5802 24.9163C17.1793 24.73 17.8221 24.73 18.4212 24.9163L32.5962 30.2542C32.9531 30.3611 33.3344 30.3596 33.6904 30.2501C34.0465 30.1406 34.3608 29.9281 34.5926 29.6402C34.8244 29.3523 34.9629 29.0024 34.9902 28.6359C35.0174 28.2694 34.932 27.9033 34.7452 27.5852L19.3242 1.03352C19.1406 0.716748 18.8752 0.453448 18.5549 0.270313C18.2347 0.0871792 17.871 -0.00927734 17.5007 -0.00927734C17.1305 -0.00927734 16.7668 0.0871792 16.4465 0.270313C16.1263 0.453448 15.8609 0.716748 15.6772 1.03352Z" fill="url(#paint3_linear)" fill-opacity="0.19"/>
</g>
<defs>
<linearGradient id="paint0_linear" x1="14.0008" y1="30.3413" x2="14.0008" y2="39.9999" gradientUnits="userSpaceOnUse">
<stop stop-color="white"/>
<stop offset="1" stop-color="white" stop-opacity="0"/>
</linearGradient>
<linearGradient id="paint1_linear" x1="13.9996" y1="35.8618" x2="13.9996" y2="39.9997" gradientUnits="userSpaceOnUse">
<stop stop-color="white"/>
<stop offset="1" stop-color="white" stop-opacity="0"/>
</linearGradient>
<linearGradient id="paint2_linear" x1="20.9996" y1="30.3413" x2="20.9996" y2="39.9999" gradientUnits="userSpaceOnUse">
<stop stop-color="white"/>
<stop offset="1" stop-color="white" stop-opacity="0"/>
</linearGradient>
<linearGradient id="paint3_linear" x1="17.5007" y1="-0.00927734" x2="17.5007" y2="30.3333" gradientUnits="userSpaceOnUse">
<stop stop-color="white"/>
<stop offset="1" stop-color="white" stop-opacity="0"/>
</linearGradient>
<clipPath id="clip0">
<rect width="35" height="40" fill="white"/>
</clipPath>
</defs>
</svg>
